<svg width="196" height="156" viewBox="0 0 196 156" fill="none" xmlns="http://www.w3.org/2000/svg">
<rect width="196" height="156" rx="10" fill="#E7ECF2"/>
<circle cx="98.1483" cy="78.1484" r="52" fill="#788AA3"/>
<path d="M150.148 78.1484C150.148 88.4331 147.099 98.4867 141.385 107.038C135.671 115.589 127.55 122.254 118.048 126.19C108.546 130.126 98.0906 131.156 88.0036 129.149C77.9166 127.143 68.6511 122.19 61.3788 114.918L98.1483 78.1484H150.148Z" fill="#FFB140"/>
<path d="M120.207 125.238C110.894 129.6 100.496 131.104 90.3284 129.557C80.1607 128.01 70.68 123.483 63.0852 116.549C55.4903 109.614 50.1225 100.582 47.6604 90.5969C45.1983 80.6113 45.7525 70.1199 49.2531 60.4493L98.1483 78.1483L120.207 125.238Z" fill="#69353F"/>
<circle cx="98.1483" cy="78.1484" r="22" fill="#E7ECF2"/>
</svg>
