<svg width="196" height="156" viewBox="0 0 196 156" fill="none" xmlns="http://www.w3.org/2000/svg">
<rect width="196" height="156" rx="10" fill="#E7ECF2"/>
<path d="M36 30H158C159.105 30 160 30.8954 160 32V43C160 44.1046 159.105 45 158 45H36V30Z" fill="#788AA3"/>
<path d="M36 56H134C135.105 56 136 56.8954 136 58V69C136 70.1046 135.105 71 134 71H36V56Z" fill="#788AA3"/>
<path d="M36 83H125C126.105 83 127 83.8954 127 85V95C127 96.1046 126.105 97 125 97H36V83Z" fill="#788AA3"/>
<path d="M36 108H67C68.1046 108 69 108.895 69 110V121C69 122.105 68.1046 123 67 123H36V108Z" fill="#788AA3"/>
</svg>
